PathFileType	4	(X/Y/Z)	Run_200 01
DataRate	CameraRate	NumFrames	NumMarkers	Units	OrigDataRate	OrigDataStartFrame	OrigNumFrames
120	120	4	42	mm	120	185	128
Frame#	Time	LASI			RASI			LPSI			RPSI			RTH1			RTH2			RTH3			LTH1			LTH2			LTH3			RTB2			RTB3			LTB1			LTB2			LTB3			RCAL			RTOE			RMT5			LCAL			LTOE			LMT5			LACR			RACR			CLAV			C7			RUA1			RUA2			RUA3			RLEL			RMEL			LUA1			LUA2			LUA3			LLEL			LMEL			RFAsuperior			RFAradius			RFAulna			LFAsuperior			LFAradius			LFAulna			RTB1			
		X1	Y1	Z1	X2	Y2	Z2	X3	Y3	Z3	X4	Y4	Z4	X5	Y5	Z5	X6	Y6	Z6	X7	Y7	Z7	X8	Y8	Z8	X9	Y9	Z9	X10	Y10	Z10	X11	Y11	Z11	X12	Y12	Z12	X13	Y13	Z13	X14	Y14	Z14	X15	Y15	Z15	X16	Y16	Z16	X17	Y17	Z17	X18	Y18	Z18	X19	Y19	Z19	X20	Y20	Z20	X21	Y21	Z21	X22	Y22	Z22	X23	Y23	Z23	X24	Y24	Z24	X25	Y25	Z25	X26	Y26	Z26	X27	Y27	Z27	X28	Y28	Z28	X29	Y29	Z29	X30	Y30	Z30	X31	Y31	Z31	X32	Y32	Z32	X33	Y33	Z33	X34	Y34	Z34	X35	Y35	Z35	X36	Y36	Z36	X37	Y37	Z37	X38	Y38	Z38	X39	Y39	Z39	X40	Y40	Z40	X41	Y41	Z41	X42	Y42	Z42	

184	1.758333	498.245496	994.36168	-424.998836	477.963061	1000.257746	-174.585223	320.922668	1012.978321	-359.17062	313.204167	1017.584165	-273.051899	447.603917	817.476908	-142.884763	516.8122509999999	702.853683	-174.465563	439.917715	572.5031289999999	-179.400253	496.26427	853.260072	-470.255043	593.568292	774.329788	-457.868912	583.644859	626.892839	-464.426233	405.118783	309.202555	-199.711961	374.238602	203.166739	-276.959438	571.019346	420.671776	-392.361424	464.103131	386.551642	-446.27619	407.445554	325.384003	-374.169987	213.220212	105.988242	-275.713176	429.974268	67.74299499999999	-289.108946	398.391767	61.708826	-193.678007	240.356339	336.714559	-380.04876	376.40435	166.872294	-365.210793	341.02625	166.766346	-451.447175	465.219954	1443.443081	-469.781297	480.199707	1416.370457	-84.828667	571.394186	1395.34816	-257.311167	443.347708	1497.019216	-274.409927	459.411046	1303.003324	-29.036323	480.165491	1236.404612	-30.157977	385.198817	1217.061339	9.849682	422.604759	1137.269232	48.253285	372.518606	1108.18258	-18.59794	415.88761	1381.554782	-523.397308	337.002899	1335.945425	-502.932132	374.207901	1301.411129	-563.942558	320.687864	1210.436418	-606.281056	272.837452	1179.451129	-535.063162	502.532345	1120.946902	23.040577	637.39855	1095.462529	-71.318994	613.494787	1032.214817	-56.177884	387.788413	1188.22117	-589.936974	522.806841	1134.948472	-489.564957	506.654276	1078.712692	-523.323835	461.17331	360.030097	-252.422293	
185	1.766667	498.136413	999.99934	-424.89243	479.280156	1003.51533	-174.952533	321.030381	1017.851843	-359.108229	313.950281	1022.406713	-272.703764	444.057355	820.633027	-143.793455	509.013246	704.041995	-175.777314	427.808797	575.928048	-180.131778	496.912316	859.325543	-470.921895	595.773513	782.121497	-457.404801	587.620216	634.057457	-463.063144	388.806131	312.077822	-199.724661	358.717963	205.75196	-275.99108	581.817799	425.410816	-391.886009	476.601016	386.145953	-446.005916	422.784517	321.899591	-374.498708	197.117792	108.51276	-275.964038	414.281069	68.645163	-288.03187	381.69612	61.809341	-193.797462	254.798963	324.090369	-380.803277	400.646603	162.171668	-366.868434	365.154576	160.63787	-453.240852	463.183786	1448.871726	-470.307196	482.06677	1421.755867	-86.280402	571.783618	1400.635883	-259.365788	443.280305	1501.732919	-275.26371	463.225813	1308.070914	-30.390659	484.273395	1241.329927	-33.094926	390.8469	1221.823532	10.574015	428.650212	1142.310916	46.684199	376.821796	1112.993408	-19.189502	413.117149	1388.024087	-523.7202600000001	334.330346	1343.012085	-502.79047	370.789191	1308.320178	-564.3613800000001	316.37505	1218.224917	-606.592506	268.318788	1187.190674	-534.9676040000001	508.198523	1128.060479	19.884081	640.983399	1104.529132	-77.13038400000001	618.609303	1040.826961	-61.912109	383.313595	1196.28942	-590.48833	518.654738	1141.999334	-491.442946	502.225939	1086.095771	-525.075372	445.662907	362.714652	-251.825724	
186	1.775	498.022071	1005.84296	-424.264956	480.777314	1007.117692	-175.356756	321.357903	1022.937525	-359.029235	315.256599	1027.453484	-272.317338	440.89546	824.146012	-144.81793	501.284909	705.783174	-177.32189	415.871019	580.079783	-180.932178	497.789252	865.727943	-471.565838	597.716149	789.84187	-456.885757	590.9513490000001	641.165843	-461.762198	372.662414	315.694259	-199.834594	343.758655	209.223128	-274.498504	591.756331	429.863786	-391.403895	488.551106	385.204574	-445.565884	438.099224	317.764543	-374.734106	181.582075	112.255518	-275.896135	398.998112	69.736116	-286.819001	365.117751	61.946944	-194.050765	270.003835	310.437275	-380.592545	425.362606	157.332734	-368.608409	389.418228	154.568362	-455.241405	461.339881	1454.477957	-470.895559	483.928184	1427.547977	-87.85770100000001	572.1431710000001	1406.292165	-261.467776	443.211903	1506.685028	-276.206143	466.840639	1313.674068	-31.687732	488.052778	1246.663229	-36.163776	396.266255	1227.167106	11.200404	434.21411	1147.827416	45.160757	380.675053	1118.384958	-19.661914	410.631382	1394.725455	-524.09698	331.974281	1350.269266	-502.74651	367.723758	1315.423898	-564.917466	312.496525	1226.042747	-607.148733	264.188955	1195.044287	-535.0611259999999	513.245722	1135.378355	16.811125	643.953851	1113.79533	-82.954984	622.990591	1049.717578	-67.772916	379.204345	1204.24622	-591.118514	514.891851	1149.263711	-493.345297	498.309268	1093.666916	-526.871639	430.248807	366.120585	-251.507285	
187	1.783333	497.893299	1011.736694	-423.614689	482.454781	1010.943936	-175.988827	321.907265	1028.21186	-358.91496	316.916071	1032.647214	-271.861893	438.12104	827.993682	-145.897251	493.856431	708.147309	-178.926085	404.302778	584.923553	-181.715994	499.012606	872.322979	-472.09531	599.376742	797.306633	-456.321115	593.612088	648.097726	-460.563493	356.95825	320.076174	-199.839173	329.293999	213.422022	-272.858924	600.834963	433.89664	-390.896529	500.01539	383.725866	-445.095944	453.425456	313.023226	-374.989448	166.841921	117.218541	-275.360229	383.659564	70.478437	-286.066128	348.618016	62.094401	-194.421862	286.004381	295.925118	-379.60544	450.421052	152.445425	-370.508504	413.809173	148.600861	-457.326596	459.711406	1460.1309	-471.584156	485.904903	1433.537015	-89.47556400000001	572.467671	1412.21506	-263.599512	443.140724	1511.756703	-277.185565	470.295633	1319.640049	-32.908536	491.545143	1252.326874	-39.130771	401.356819	1232.937211	11.702837	439.295017	1153.666408	43.728863	384.079265	1124.222116	-19.990222	408.46418	1401.468318	-524.5738260000001	329.924717	1357.576975	-502.854897	365.007055	1322.537086	-565.596065	308.969208	1233.6965	-607.915583	260.461686	1202.830932	-535.310477	517.687095	1142.685793	13.817657	646.329599	1123.064407	-88.676627	626.6409190000001	1058.67965	-73.64069000000001	375.406919	1211.94272	-591.929042	511.532687	1156.644211	-495.408806	494.921458	1101.261193	-528.760761	415.144405	370.216984	-251.434753	
